Coordinates
version=1
nRows=4
nColumns=63
inDegrees=yes

Units are S.I. units (second, meters, Newtons, ...)
If the header above contains a line with 'inDegrees', this indicates whether rotational values are in degrees (yes) or radians (no).

endheader
time	pelvis_tilt	pelvis_list	pelvis_rotation	pelvis_tx	pelvis_ty	pelvis_tz	hip_flexion_r	hip_adduction_r	hip_rotation_r	knee_angle_r	knee_angle_r_beta	ankle_angle_r	subtalar_angle_r	mtp_angle_r	hip_flexion_l	hip_adduction_l	hip_rotation_l	knee_angle_l	knee_angle_l_beta	ankle_angle_l	subtalar_angle_l	mtp_angle_l	L5_S1_Flex_Ext	L5_S1_Lat_Bending	L5_S1_axial_rotation	L4_L5_Flex_Ext	L4_L5_Lat_Bending	L4_L5_axial_rotation	L3_L4_Flex_Ext	L3_L4_Lat_Bending	L3_L4_axial_rotation	L2_L3_Flex_Ext	L2_L3_Lat_Bending	L2_L3_axial_rotation	L1_L2_Flex_Ext	L1_L2_Lat_Bending	L1_L2_axial_rotation	L1_T12_Flex_Ext	L1_T12_Lat_Bending	L1_T12_axial_rotation	Abs_r3	Abs_r2	Abs_r1	Abs_t1	Abs_t2	neck_flexion	neck_bending	neck_rotation	arm_flex_r	arm_add_r	arm_rot_r	elbow_flex_r	pro_sup_r	wrist_flex_r	wrist_dev_r	arm_flex_l	arm_add_l	arm_rot_l	elbow_flex_l	pro_sup_l	wrist_flex_l	wrist_dev_l
      8.13793103	      7.33167281	     -4.90724338	    104.43419564	      0.07949356	      0.72888904	      0.75460311	      8.12001223	     -0.13542252	    -13.04191219	     13.30430020	      0.23220384	     37.35879376	      2.75815727	      0.00000000	     16.04355143	     -2.92042775	      2.90497337	     21.34554120	      0.37254997	     43.75039117	     17.79100458	      0.00000000	     -0.24505748	     -0.20469535	      3.41156806	     -0.45509624	     -0.27224482	      3.62479107	     -0.40260493	     -0.49769628	      3.62479107	     -0.28007619	     -0.49769628	      2.98512206	     -0.22756037	     -0.41741476	      2.77189905	     -0.14002584	     -0.31707310	      2.55867605	     -1.75042106	     -2.31555476	     18.97411810	      0.00000000	      0.00000000	     19.30823317	     -4.45317135	    -18.89206625	    -17.37107241	    -63.92515687	     13.92258216	      2.08625804	      2.17667467	    -12.64181811	      9.86889665	    -50.64407041	    -82.03887880	     16.46244988	      0.43481557	      2.07221600	    -11.68757939	    -22.80773143
      8.15517241	      6.43985780	     -4.69814774	    104.44284940	      0.07378352	      0.73183293	      0.75096615	      7.32865792	     -0.91044382	     -9.93829994	     12.78406180	      0.22312397	     36.58214999	     -0.83778843	      0.00000000	     14.75028635	     -1.90333933	      2.56306082	     20.30744724	      0.35443182	     42.67908826	     17.93134932	      0.00000000	     -0.19437965	     -0.20218320	      3.03385151	     -0.36098244	     -0.26890366	      3.22346723	     -0.31934632	     -0.49158823	      3.22346723	     -0.22215650	     -0.49158823	      2.65462007	     -0.18050094	     -0.41229198	      2.46500435	     -0.11106853	     -0.31318178	      2.27538863	     -1.38843438	     -2.28713681	     16.87337196	      0.00000000	      0.00000000	     19.48980154	     -3.69521432	    -16.54046378	    -14.28166687	    -66.35174186	     16.34720290	      1.28000724	      1.99306180	    -13.39122447	      8.14959991	    -80.68359413	    -81.07489697	    -13.49456588	      0.64143387	      3.03376109	     -8.39284395	    -23.49544017
      8.17241379	      6.96147006	     -3.72485478	    104.15720222	      0.06413657	      0.73525654	      0.74995688	      6.30553994	     -0.66913662	     -9.62274632	     12.58197157	      0.21959683	     35.84163657	     -0.45724208	      0.00000000	     13.28229204	     -2.25267281	      2.39077658	     19.59853005	      0.34205888	     42.10950949	     17.81579633	      0.00000000	     -0.18112957	      0.11661434	      2.96328887	     -0.33637573	      0.15509708	      3.14849443	     -0.29757778	      0.28353612	      3.14849443	     -0.20701299	      0.28353612	      2.59287776	     -0.16819692	      0.23779997	      2.40767221	     -0.10349744	      0.18063562	      2.22246665	     -1.29379043	      1.31916479	     16.48092372	      0.00000000	      0.00000000	     18.95304591	     -5.56315993	    -13.26131118	    -16.34669200	    -70.61099305	     15.91453796	      0.76447751	      1.74755906	    -14.24363659	      7.08516491	    -82.86860623	    -80.61639919	    -15.65267847	      0.47972335	      2.33622108	     -9.91477534	    -24.00463027
      8.18965517	      5.76780632	     -3.55236157	    103.94986265	      0.06074096	      0.73775752	      0.74558587	      5.41682160	     -1.74877253	     -6.77016774	     11.98446187	      0.20916832	     35.30544552	     -2.80753683	      0.00000000	     11.93678476	     -1.10186693	      1.64726001	     18.57605309	      0.32421329	     41.35917630	     18.05968874	      0.00000000	     -0.12158062	      0.03807100	      2.62664543	     -0.22578736	      0.05063442	      2.79081077	     -0.19974479	      0.09256582	      2.79081077	     -0.13895449	      0.09256582	      2.29831475	     -0.11289976	      0.07763437	      2.13414941	     -0.06947116	      0.05897197	      1.96998407	     -0.86843819	      0.43066672	     14.60861388	      0.00000000	      0.00000000	     18.49049011	     -1.46334754	    -11.16980057	    -11.48642759	    -71.91931690	     17.41865068	      0.62545191	      1.65283250	    -15.27119248	      1.20081692	   -105.65258113	    -77.90184146	    -37.69563659	      0.67220267	      3.88101177	     -3.64970682	    -24.21323863
